<svg xmlns="http://www.w3.org/2000/svg" width="34" height="34" viewBox="0 0 34 34">
    <g fill="none" fill-rule="evenodd">
        <circle cx="17" cy="17" r="17" fill="#B2B2B7"/>
        <path fill="#FFF" fill-rule="nonzero" d="M17.056 8.5c-2.49 0-4.51 1.985-4.51 4.435v.739c0 2.45 2.02 4.435 4.51 4.435 2.491 0 4.51-1.986 4.51-4.435v-.74c0-2.449-2.019-4.434-4.51-4.434zm-.001 11.826c-3.011 0-6.875 1.602-7.986 3.023-.687.879-.033 2.151 1.093 2.151H23.95c1.127 0 1.78-1.272 1.094-2.151-1.112-1.42-4.977-3.023-7.988-3.023z"/>
    </g>
</svg>
